{"title":"Kung Fu Panda Duology [HD] 720p","uid":6777258,"size":1186945428,"categoryP":"video","categoryS":"hd___movies","magnet":"?xt=urn:btih:d82e32d8a0b134595ec669466d5678d6363e5c6a&amp;dn=Kung+Fu+Panda+Duology+%5BHD%5D+720p&amp;tr=udp%3A%2F%2Ftracker.openbittorrent.com%3A80&amp;tr=udp%3A%2F%2Fopen.demonii.com%3A1337&amp;tr=udp%3A%2F%2Ftracker.coppersurfer.tk%3A6969&amp;tr=udp%3A%2F%2Fexodus.desync.com%3A6969","seeders":0,"leechers":1,"uploader":"nexuswolf","files":7,"time":1319783454,"description":"_____________________________________________________________________________________\n\nKung Fu Panda 1 &amp; Kung Fu Panda 2 Both In 720p!!!!\n_____________________________________________________________________________________\n\nKung Fu Panda Info:\n\n\nGeneral\nUnique ID                                : 200125698071821165618563283263304806322 (0x968ECEB56C3B4D1C98A06D6D82BCAFB2)\nComplete name                            : F:\\Kung Fu Panda Collection [HD]\\Kung Fu Panda [HD]\\Kung Fu Panda [HD].mkv\nFormat                                   : Matroska\nFormat version                           : Version 2\nFile size                                : 529 MiB\nDuration                                 : 1h 32mn\nOverall bit rate                         : 802 Kbps\nMovie name                               : Kung Fu Panda 2008 Bluray 720p Dual Audio - Henry[~KSRR~]\nEncoded date                             : UTC 2011-05-17 18:07:48\nWriting application                      : mkvmerge v4.7.0 ('Just Like You Imagined') built on Apr 21 2011 01:13:14\nWriting library                          : libebml v1.2.0 + libmatroska v1.1.0\n\nVideo\nID                                       : 1\nFormat                                   : AVC\nFormat/Info                              : Advanced Video Codec\nFormat profile                           : &lt;a class=&quot;__cf_email__&quot; href=&quot;/cdn-cgi/l/email-protection&quot; data-cfemail=&quot;90d8f9f7f8d0dca3bea1&quot;&gt;[email&amp;#160;protected]&lt;/a&gt;&lt;script cf-hash='f9e31' type=&quot;text/javascript&quot;&gt;\n/* &lt;![CDATA[ */!function(){try{var t=&quot;currentScript&quot;in document?document.currentScript:function(){for(var t=document.getElementsByTagName(&quot;script&quot;),e=t.length;e--;)if(t[e].getAttribute(&quot;cf-hash&quot;))return t[e]}();if(t&amp;&amp;t.previousSibling){var e,r,n,i,c=t.previousSibling,a=c.getAttribute(&quot;data-cfemail&quot;);if(a){for(e=&quot;&quot;,r=parseInt(a.substr(0,2),16),n=2;a.length-n;n+=2)i=parseInt(a.substr(n,2),16)^r,e+=String.fromCharCode(i);e=document.createTextNode(e),c.parentNode.replaceChild(e,c)}}}catch(u){}}();/* ]]&gt; */&lt;/script&gt;\nFormat settings, CABAC                   : Yes\nFormat settings, ReFrames                : 5 frames\nMuxing mode                              : Header stripping\nCodec ID                                 : V_MPEG4/ISO/AVC\nDuration                                 : 1h 32mn\nNominal bit rate                         : 647 Kbps\nWidth                                    : 1 280 pixels\nHeight                                   : 540 pixels\nDisplay aspect ratio                     : 2.35:1\nOriginal display aspect ratio            : 2.35:1\nFrame rate                               : 23.976 fps\nColor space                              : YUV\nChroma subsampling                       : 4:2:0\nBit depth                                : 8 bits\nScan type                                : Progressive\nBits/(Pixel*Frame)                       : 0.039\nTitle                                    : Ripped By Nexus Wolf\nWriting library                          : x264 core 68 r1183M f21daff\nEncoding settings                        : cabac=1 / ref=5 / deblock=1:-1:-1 / analyse=0x3:0x133 / me=umh / subme=7 / psy_rd=1.0:0.0 / mixed_ref=1 / me_range=16 / chroma_me=1 / trellis=2 / 8x8dct=1 / cqm=0 / deadzone=21,11 / chroma_qp_offset=-2 / threads=3 / nr=0 / decimate=1 / mbaff=0 / bframes=3 / b_pyramid=1 / b_adapt=2 / b_bias=0 / direct=3 / wpredb=1 / keyint=250 / keyint_min=25 / scenecut=40 / rc=2pass / bitrate=647 / ratetol=1.0 / qcomp=0.60 / qpmin=10 / qpmax=51 / qpstep=4 / cplxblur=20.0 / qblur=0.5 / ip_ratio=1.40 / pb_ratio=1.30 / aq=1:1.00\n\nAudio #1\nID                                       : 2\nFormat                                   : AAC\nFormat/Info                              : Advanced Audio Codec\nFormat profile                           : HE-AAC / LC\nCodec ID                                 : A_AAC\nDuration                                 : 1h 32mn\nChannel(s)                               : 2 channels\nChannel positions                        : Front: L R\nSampling rate                            : 48.0 KHz / 24.0 KHz\nCompression mode                         : Lossy\nTitle                                    : Nexus Wolf\nLanguage                                 : English\n\nAudio #2\nID                                       : 3\nFormat                                   : AC-3\nFormat/Info                              : Audio Coding 3\nMode extension                           : CM (complete main)\nMuxing mode                              : Header stripping\nCodec ID                                 : A_AC3\nDuration                                 : 1h 32mn\nBit rate mode                            : Constant\nBit rate                                 : 128 Kbps\nChannel(s)                               : 2 channels\nChannel positions                        : Front: L R\nSampling rate                            : 48.0 KHz\nBit depth                                : 16 bits\nCompression mode                         : Lossy\nDelay relative to video                  : 2s 0ms\nStream size                              : 84.4 MiB (16%)\nTitle                                    : Nexus Wolf\nLanguage                                 : Hindi\n\nSubtitles\nPresent                                  : Yes\nType                                     : SRT\n___________________________________________________________________________________\n\nKung Fu Panda 2 Info:\n\n\nGeneral\nComplete name                            : F:\\Kung Fu Panda Collection [HD]\\Kung Fu Panda 2 [HD]\\Kung Fu Panda 2 [HD].mp4\nFormat                                   : MPEG-4\nFormat profile                           : Base Media\nCodec ID                                 : isom\nFile size                                : 601 MiB\nDuration                                 : 1h 30mn\nOverall bit rate mode                    : Variable\nOverall bit rate                         : 930 Kbps\nEncoded date                             : UTC 2011-10-15 05:56:01\nTagged date                              : UTC 2011-10-15 05:56:01\n\nVideo\nID                                       : 1\nFormat                                   : AVC\nFormat/Info                              : Advanced Video Codec\nFormat profile                           : &lt;a class=&quot;__cf_email__&quot; href=&quot;/cdn-cgi/l/email-protection&quot; data-cfemail=&quot;84ccede3ecc4c8b7aab5&quot;&gt;[email&amp;#160;protected]&lt;/a&gt;&lt;script cf-hash='f9e31' type=&quot;text/javascript&quot;&gt;\n/* &lt;![CDATA[ */!function(){try{var t=&quot;currentScript&quot;in document?document.currentScript:function(){for(var t=document.getElementsByTagName(&quot;script&quot;),e=t.length;e--;)if(t[e].getAttribute(&quot;cf-hash&quot;))return t[e]}();if(t&amp;&amp;t.previousSibling){var e,r,n,i,c=t.previousSibling,a=c.getAttribute(&quot;data-cfemail&quot;);if(a){for(e=&quot;&quot;,r=parseInt(a.substr(0,2),16),n=2;a.length-n;n+=2)i=parseInt(a.substr(n,2),16)^r,e+=String.fromCharCode(i);e=document.createTextNode(e),c.parentNode.replaceChild(e,c)}}}catch(u){}}();/* ]]&gt; */&lt;/script&gt;\nFormat settings, CABAC                   : Yes\nFormat settings, ReFrames                : 5 frames\nCodec ID                                 : avc1\nCodec ID/Info                            : Advanced Video Coding\nDuration                                 : 1h 30mn\nBit rate                                 : 895 Kbps\nMaximum bit rate                         : 2 666 Kbps\nWidth                                    : 1 280 pixels\nHeight                                   : 544 pixels\nDisplay aspect ratio                     : 2.35:1\nFrame rate mode                          : Constant\nFrame rate                               : 23.976 fps\nColor space                              : YUV\nChroma subsampling                       : 4:2:0\nBit depth                                : 8 bits\nScan type                                : Progressive\nBits/(Pixel*Frame)                       : 0.054\nStream size                              : 579 MiB (96%)\nWriting library                          : x264 core 116 r2074 2641b9e\nEncoding settings                        : cabac=1 / ref=5 / deblock=1:-2:-1 / analyse=0x3:0x113 / me=umh / subme=5 / psy=1 / psy_rd=1.00:0.00 / mixed_ref=1 / me_range=16 / chroma_me=1 / trellis=1 / 8x8dct=1 / cqm=0 / deadzone=21,11 / fast_pskip=1 / chroma_qp_offset=0 / threads=6 / sliced_threads=0 / nr=0 / decimate=1 / interlaced=0 / bluray_compat=0 / constrained_intra=0 / bframes=16 / b_pyramid=2 / b_adapt=1 / b_bias=0 / direct=3 / weightb=1 / open_gop=0 / weightp=2 / keyint=250 / keyint_min=23 / scenecut=40 / intra_refresh=0 / rc=2pass / mbtree=0 / bitrate=895 / ratetol=1.0 / qcomp=0.60 / qpmin=10 / qpmax=51 / qpstep=4 / cplxblur=20.0 / qblur=0.5 / ip_ratio=1.40 / pb_ratio=1.30 / aq=2:1.00\nEncoded date                             : UTC 2011-10-15 05:56:01\nTagged date                              : UTC 2011-10-15 05:56:33\n\nAudio\nID                                       : 2\nFormat                                   : AAC\nFormat/Info                              : Advanced Audio Codec\nFormat profile                           : HE-AAC / LC\nCodec ID                                 : 40\nDuration                                 : 1h 30mn\nBit rate mode                            : Variable\nBit rate                                 : 32.0 Kbps\nMaximum bit rate                         : 46.7 Kbps\nChannel(s)                               : 2 channels\nChannel positions                        : Front: L R\nSampling rate                            : 48.0 KHz / 24.0 KHz\nCompression mode                         : Lossy\nStream size                              : 20.7 MiB (3%)\nEncoded date                             : UTC 2011-10-15 05:56:32\nTagged date                              : UTC 2011-10-15 05:56:33\n\nSubtitles\nPresent                                  : Yes\nType                                     : SRT\n___________________________________________________________________________________\n\nPlz Don't Kill The Torrent Guyz,Seed For As Long As Possible!\n___________________________________________________________________________________\n\nDo Not Forget To Add A +1 To The Quality If You Like It!!\n___________________________________________________________________________________\n\n- Nexus Wolfsbane Wolf\n___________________________________________________________________________________","torrent":{"xt":"urn:btih:d82e32d8a0b134595ec669466d5678d6363e5c6a","amp;dn":"Kung+Fu+Panda+Duology+%5BHD%5D+720p","amp;tr":["udp%3A%2F%2Ftracker.openbittorrent.com%3A80","udp%3A%2F%2Fopen.demonii.com%3A1337","udp%3A%2F%2Ftracker.coppersurfer.tk%3A6969","udp%3A%2F%2Fexodus.desync.com%3A6969"],"infoHash":"d82e32d8a0b134595ec669466d5678d6363e5c6a","infoHashBuffer":{"type":"Buffer","data":[216,46,50,216,160,177,52,89,94,198,105,70,109,86,120,214,54,62,92,106]},"announce":[],"urlList":[]}}